<svg xmlns="http://www.w3.org/2000/svg" width="1200" height="700" viewBox="0 0 1200 700" role="img" aria-label="BFS project placeholder image">
  <defs>
    <linearGradient id="g1" x1="0" x2="1" y1="0" y2="1">
      <stop offset="0%" stop-color="#0f172a"/>
      <stop offset="100%" stop-color="#1d4ed8"/>
    </linearGradient>
  </defs>
  <rect width="1200" height="700" fill="url(#g1)"/>
  <g fill="none" stroke="#bfdbfe" stroke-width="4" opacity="0.55">
    <path d="M70,480 C220,360 330,540 480,430 C620,330 710,460 900,350 C1020,290 1080,260 1130,220"/>
    <path d="M70,550 C220,430 330,600 500,520 C640,450 760,530 920,470 C1020,430 1090,410 1130,370"/>
  </g>
  <rect x="80" y="90" width="150" height="46" rx="23" fill="#dbeafe" opacity="0.88"/>
  <text x="128" y="121" font-size="24" font-family="Arial, sans-serif" font-weight="700" fill="#0f172a">BFS</text>
  <text x="80" y="250" font-size="50" font-family="Arial, sans-serif" font-weight="700" fill="#ffffff">pitzDailySteady</text>
  <text x="80" y="308" font-size="42" font-family="Arial, sans-serif" font-weight="700" fill="#ffffff">Backward-Facing Step</text>
  <text x="80" y="370" font-size="24" font-family="Arial, sans-serif" fill="#e5efff">Reattachment-length extraction · QoI definition · model sensitivity</text>
</svg>
